<?xml version="1.0" ?><!DOCTYPE svg  PUBLIC '-//W3C//DTD SVG 1.1//EN'  'http://www.w3.org/Graphics/SVG/1.1/DTD/svg11.dtd'><svg enable-background="new 0 0 100 100" height="100px" id="Layer_1" version="1.1" viewBox="0 0 100 100" width="100px" xml:space="preserve" xmlns="http://www.w3.org/2000/svg" xmlns:xlink="http://www.w3.org/1999/xlink"><rect fill="#2E96D3" height="10.378" width="96.191" x="1.904" y="88.098"/><path d="M99.62,100H0.38V86.573h99.24V100z M3.428,96.952h93.145v-7.331H3.428V96.952z" fill="#211915"/><rect fill="#2E96D3" height="10.38" width="84.29" x="7.856" y="77.718"/><path d="M93.67,89.621H6.332V76.193H93.67V89.621z M9.38,86.573h81.242v-7.332H9.38V86.573z" fill="#211915"/><rect fill="#2E96D3" height="37.368" width="10.38" x="13.673" y="40.35"/><path d="M25.576,79.241H12.149V38.826h13.427V79.241z M15.197,76.193h7.331V41.874h-7.331V76.193z" fill="#211915"/><rect fill="#2E96D3" height="37.368" width="10.379" x="55.19" y="40.35"/><path d="M67.093,79.241H53.667V38.826h13.426V79.241z M56.715,76.193h7.33V41.874h-7.33V76.193z" fill="#211915"/><rect fill="#2E96D3" height="37.368" width="10.379" x="75.949" y="40.35"/><path d="M87.852,79.241H74.425V38.826h13.427V79.241z M77.473,76.193h7.331V41.874h-7.331V76.193z" fill="#211915"/><rect fill="#2E96D3" height="37.368" width="10.379" x="34.432" y="40.35"/><path d="M46.334,79.241H32.908V38.826h13.426V79.241z M35.956,76.193h7.33V41.874h-7.33V76.193z" fill="#211915"/><polygon fill="#2E96D3" points="95.718,32.697 50.001,1.838 4.284,32.697 4.284,40.35 95.718,40.35 "/><path d="M97.242,41.874H2.761v-9.986L50.001,0l47.241,31.888V41.874z M5.809,38.826h88.386v-5.319L50.001,3.677  L5.809,33.507V38.826z" fill="#211915"/><polygon fill="#FFFFFF" points="11.618,36.973 8.57,36.973 8.57,33.968 49.147,6.58 50.853,9.105 11.618,35.589 "/><rect fill="#FFFFFF" height="13.796" width="3.048" x="17.339" y="58.704"/><rect fill="#FFFFFF" height="13.796" width="3.047" x="38.098" y="58.704"/><rect fill="#FFFFFF" height="13.796" width="3.047" x="58.856" y="58.704"/><rect fill="#FFFFFF" height="13.796" width="3.048" x="79.614" y="58.704"/></svg>